<svg xmlns="http://www.w3.org/2000/svg" viewBox="0 0 664 280">
  <g id="shoe-laces" style="isolation: isolate">
    <path class="shoe-laces" d="M291,35c16.84-.09,27.72,3.18,30,18-19.55-8.44-27,3.27-44,2-.67-3.33-1.33-6.67-2-10Z" fill-rule="evenodd"/>
    <path class="shoe-laces" d="M324,59c13.58,1.9,23.75,7.6,28,19h-1c-10.86-5.35-20.14-4.21-33,0-4.54-2.49-5.95-3.86-7-10C315.55,65.3,321.21,63.78,324,59Z" fill-rule="evenodd"/>
    <path class="shoe-laces" d="M354,80c13.48-.42,24,4,28,13h-1c-13.14-6.25-16.54,6.47-32,4-.33-.67-.67-1.33-1-2C349.88,88.1,354.58,86.28,354,80Z" fill="none" fill-rule="evenodd"/>
    <path class="shoe-laces" d="M384,94c11.84,5,25.5,5.84,33,15-10-1.27-26.33,9.1-33,0Z" fill-rule="evenodd"/>
    <path class="shoe-laces" d="M428,112c10.74.78,13,6.31,22,9-.33,1-.67,2-1,3-11-.36-21.36,8.79-30-2v-2Z" fill-rule="evenodd"/>
    <path class="shoe-laces" d="M459,123c6.8,1.37,9.45,4.63,14,8v4l-3,5-5,1-9-6v-9C457.9,124.63,457.64,125,459,123Z" fill-rule="evenodd"/>
  </g>
  <g id="middle" style="isolation: isolate">
    <path class="middle" d="M303,87l28,14c22.69,12.25,50.86,25.71,78,31,.33,3,.67,6,1,9-14.47,15.55-34.47,53.88-46,62H209v-1l2-2c3.75-11.18,12.94-18.18,19-27,20-29.05,41.4-60.24,66-85Z" fill-rule="evenodd"/>
  </g>
  <g id="left-right">
    <path class="left-right_i" d="M14,203c-1.32-38.08-3-90.56,19-102,17.33-9,29.58,9.61,47,4l20-18c57.16,19.7,103.28-17.78,136-42,19,8.71,44.43,28.68,65,40-.33.67-.67,1.33-1,2-7.25.19-18.85,19-26,29l-35,42c-10.12,13.62-19.44,37.24-34,46Z" fill-rule="evenodd"/>
    <path class="left-right_ii" d="M31,100c.33.67.67,1.33,1,2C31.67,101.33,31.33,100.67,31,100Z" fill="none" fill-rule="evenodd"/>
    <path class="left-right" d="M412,136c40.07,17.34,64.57,23.71,77,66l-124,1c8.83-14.91,20.76-30.71,31-47C400.54,148.78,408.91,144.78,412,136Z" fill-rule="evenodd"/>
  </g>
  <g id="stripes" style="isolation: isolate">
    <path class="stripes" d="M460,128c-.15,6.33-.7,8.54,1,12h1l14-7,27,10c9.35,5.8,31.17,42.61,31,55l-46,2c-3.1-44.5-44.81-45.75-78-64-58.29-32-121.16-51.85-173-89l3-8c15.54-6.29,27.23-9.34,42,0l-3,14c.33.67.67,1.33,1,2,12.07-1.22,15-6.29,27-7l14,13v3c-4,2.17-7.18,4.59-9,9v1l6,4c11.69-4,29.28-7.82,36,3,.33,1,.67,2,1,3l-7,9c1.32,3.83,0,2.08,3,4,8.67,3.75,15.24-3.43,20-7l13,3,4,6q-2,5.5-4,11l2,2c12.7-.07,29-7.12,41,2-2.08,4.07-5.52,8.53-5,12,10.08,2.65,13.63-2.09,21-3Z" fill-rule="evenodd"/>
    <path class="stripes" d="M41,48h3C62.24,61,78.66,75.67,99,87c-5.38,7.8-12,11.92-19,18-18.64.12-28.44-4.23-47-4-.47,1.33-.54-.76-1-1H31c-.86,5.17-6.29,6.85-9,12-2.94,5.57-6.38,33.42-9,45v46l-2-3c-6.79-7.34,0-32.16-1-42C6.07,120.81,26,75.24,41,48Z" fill-rule="evenodd"/>
  </g>
  <g id="front-piece" style="isolation: isolate">
    <path d="M245,1c11,1.27,47.15,27,52,35v1l-3,1c-44.38-4.79-43.38-1.06-80,23h-1C212.26,29.15,227.67,14.46,245,1Z" fill-rule="evenodd"/>
    <path d="M506,142c37.89,20.52,107.66,6.12,135,37-14.29,1.8-96.17,23.4-105,16l-33-50Z" fill-rule="evenodd"/>
  </g>
  <g id="bottom" style="isolation: isolate">
    <path d="M640,178l7,4c4.06,12.43,19.13,37.15,8,56-124.9,41.52-304.16,34-469,34-37.88,0-152.75,7.71-177-4-.65-23.36-8-47.64,1-68,8.23,6.36,33.42,3,47,3H393c57,0,116,2.35,163-9C583.55,187.34,618.41,191.22,640,178Z" fill-rule="evenodd"/>
  </g>
</svg>
